<svg width="100" height="100" viewBox="0 0 24 24" fill="none" xmlns="http://www.w3.org/2000/svg">
  <path fill="#007396" d="M12 0C5.373 0 0 5.373 0 12s5.373 12 12 12 12-5.373 12-12S18.627 0 12 0Zm3.81 19.67h-1.58c-1.025 0-2.06-.06-3.1-.17-1.04-.107-2.09-.272-3.15-.495V17.27c.95.25 1.97.44 3.05.57s2.21.19 3.3.19c.87 0 1.54-.04 2.02-.11s.87-.15 1.13-.26c.26-.11.45-.24.57-.41.13-.17.2-.35.2-.54 0-.21-.07-.38-.21-.51-.14-.13-.35-.25-.62-.35a5.42 5.42 0 0 0-.93-.23 14.53 14.53 0 0 0-1.68-.11h-2.9v-1.36h2.97c.61 0 1.15.02 1.64.07.49.05.88.11 1.18.18.29.07.5.16.65.28.14.12.22.27.22.44s-.07.36-.2.51c-.14.15-.36.28-.67.39-.31.11-.73.19-1.27.24s-1.23.07-2.06.07h-2.98v-1.53h2.9c1.08 0 1.93-.03 2.57-.1s1.11-.16 1.37-.27c.27-.1.46-.24.58-.4.13-.16.2-.34.2-.54 0-.24-.08-.44-.25-.6-.16-.17-.42-.3-.77-.39a5.7 5.7 0 0 0-1.08-.22 15.77 15.77 0 0 0-2.17-.1H6.64V5.33h10.72v1.47H8.37v2.79h7.9V10h-7.9v2.82h8.8v1.43h-8.8V15h7.9v1.43h-7.9v2.74h9.35v1.5H6.64v-1.47h9.15Z"/>
</svg>
